<?xml version="1.0" encoding="utf-8"?>
<!-- Generator: Adobe Illustrator 19.2.1, SVG Export Plug-In . SVG Version: 6.00 Build 0)  -->
<svg version="1.1" id="Capa_1" xmlns="http://www.w3.org/2000/svg" xmlns:xlink="http://www.w3.org/1999/xlink" x="0px" y="0px"
	 viewBox="0 0 471.4 120" style="enable-background:new 0 0 471.4 120;" xml:space="preserve">
<style type="text/css">
	.st0{display:none;}
	.st1{display:inline;fill:#545454;}
	.st2{display:inline;}
	.st3{fill:#A0A0A0;}
	.st4{fill:#FFFFFF;}
	.st5{display:inline;opacity:0.5;}
	.st6{fill:#025DAE;}
	.st7{fill:#B3B4B6;}
</style>
<g id="Bkd" class="st0">
	<rect class="st1" width="471.4" height="120"/>
</g>
<g id="Inverse" class="st0">
	<g class="st2">
		<path class="st3" d="M315.2,85.1h0.6v6h-0.6c-0.9-3.6-2.9-5.5-5.6-5.5c-2.1,0-3.7,1.5-3.7,3.6c0,2.7,2.2,3.4,5.8,5.2
			c3.9,1.9,6,3.9,6,7.1c0,3.9-2.7,6.8-6.9,6.8c-2.4,0-4-0.7-6-2.8c-0.5,0.7-0.8,1.5-0.9,2.3h-0.6v-7.5h0.6c1.1,4.8,3,7.1,6.4,7.1
			c3,0,5-1.9,5-4.5c0-3.4-2.4-4.1-5.7-5.8c-3.8-1.8-5.8-3.4-5.8-6.6c0-3.3,2.3-5.8,5.7-5.8c2,0,3.5,0.7,5,2.3
			C314.9,86.5,315.1,85.9,315.2,85.1z"/>
		<path class="st3" d="M323.5,104.5c1,0,1.9,0.9,1.9,1.9s-0.8,1.9-1.9,1.9c-1,0-1.8-0.8-1.8-1.9S322.5,104.5,323.5,104.5z"/>
		<path class="st3" d="M346.4,103.5c0.9,2.2,1.4,3.4,3.2,3.5v0.8h-8.3V107h0.8c1.1,0,1.7-0.4,1.7-1.2c0-0.3-0.1-0.7-0.3-1.3
			l-1.9-4.9h-8.4l-1.5,3.6c-0.3,0.7-0.4,1.3-0.4,1.8c0,1.1,0.8,1.8,2.3,1.9v0.8h-6.5V107c2-0.4,2.8-1.6,3.6-3.6l7.4-18.6l0.8-0.1
			L346.4,103.5z M333.5,98.7h7.6l-3.8-9.5L333.5,98.7z"/>
		<path class="st3" d="M353.8,104.5c1,0,1.9,0.9,1.9,1.9s-0.8,1.9-1.9,1.9c-1,0-1.8-0.8-1.8-1.9S352.8,104.5,353.8,104.5z"/>
		<path class="st3" d="M376.5,85.8H376v-0.6c1.6-0.2,3.1-0.4,4.6-0.9v20.2c0,1.8,0.4,2.6,1.7,2.6c0.1,0,0.3,0,0.4,0v0.6
			c-1.6,0.2-3,0.4-4.3,0.6c-0.2-0.8-0.3-1.5-0.3-2.2c-1.4,1.5-2.9,2.2-4.8,2.2c-3.6,0-6.1-2.9-6.1-7.2c0-4.6,2.7-7.5,6.6-7.5
			c1.7,0,2.8,0.6,4.3,1.9v-7.4C378.2,86.3,377.9,85.8,376.5,85.8z M374.4,94.5c-2.4,0-4.3,2.4-4.3,6.7c0,3.9,1.7,6.1,4.1,6.1
			c1.5,0,2.8-0.7,4-2.2v-8.4C377,95.2,375.7,94.5,374.4,94.5z"/>
		<path class="st3" d="M388.5,98.8c0,0.9-0.1,1.7-0.1,2.5c0,4.1,1.1,6.1,4.3,6.1c2.2,0,3.8-1.2,4.3-3h0.8c-0.3,2.3-2.5,3.9-5.5,3.9
			c-3.9,0-6.5-2.8-6.5-7.1c0-4.5,2.7-7.5,6.5-7.5c3,0,5.2,1.9,5.2,5.1v0.1L388.5,98.8L388.5,98.8z M394.8,97.1
			c0-1.7-1.1-2.7-2.8-2.7c-2,0-3.1,1.2-3.4,3.7h6.1C394.8,97.6,394.8,97.3,394.8,97.1z"/>
		<path class="st3" d="M428.5,85.2h0.6l0.1,8.4h-0.6c-1-5.3-3.8-8.1-7.9-8.1c-4.5,0-7.5,3.7-7.5,10.9c0,7.1,2.9,10.7,7.6,10.7
			c4.1,0,6.9-2.7,7.9-7.9h0.6v8.4h-0.6c-0.2-1-0.6-1.9-1.2-2.8c-2.3,2.2-4.5,3.3-7.3,3.3c-6.2,0-10.7-4.4-10.7-11.6
			c0-7.4,4.9-12,10.4-12c3,0,5.5,1.1,7.6,3.3C428.1,87.1,428.4,86.2,428.5,85.2z"/>
		<path class="st3" d="M436.1,104.5c1,0,1.9,0.9,1.9,1.9s-0.8,1.9-1.9,1.9c-1,0-1.8-0.8-1.8-1.9
			C434.3,105.3,435.2,104.5,436.1,104.5z"/>
		<path class="st3" d="M449.1,85.2V86H448c-1.1,0-1.7,0.4-1.7,1.2c0,0.3,0.1,0.7,0.3,1.3l6.6,15.8l5.8-14.6c0.3-0.7,0.4-1.3,0.4-1.8
			c0-1.1-0.8-1.8-2.3-1.9v-0.8h6.6V86c-2,0.4-2.8,1.5-3.6,3.5l-7.4,18.7h-1.2l-7.8-18.8c-1-2.3-1.4-3.5-3.6-3.5H440v-0.8h9.1V85.2z"
			/>
		<path class="st3" d="M461.9,104.5c1,0,1.9,0.9,1.9,1.9s-0.8,1.9-1.9,1.9c-1,0-1.8-0.8-1.8-1.9S460.9,104.5,461.9,104.5z"/>
	</g>
	<g class="st2">
		<g>
			<path class="st4" d="M55.5,14.8h1.6l0.4,19.6h-1.6C51.9,21.3,45.2,15,34.4,15C22.2,15,14,24.8,14,43.9c0,18.9,7.9,28.4,20.8,28.4
				c5.8,0,10.6-2.3,12.9-4.8c1.7-1.9,2.3-5.1,2.3-9.9c0-5.8-1.3-7.3-7.1-7.3h-1.6v-2.2h25.5v2.1c-6.8,0.2-8.5,1.8-8.5,8v11.6
				c-0.4,0-0.7-0.1-1.1-0.1c-6.6,0-13.2,5.2-23.8,5.2C16,75,4,63.4,4,44.5C4,25,17.2,12.6,32.3,12.6c8.3,0,14.8,2.8,20.6,8.6
				C54.1,19.1,55,16.9,55.5,14.8z"/>
		</g>
		<g>
			<path class="st4" d="M388.6,15.5h-1.3V14c4.3-0.4,8.5-1.2,12.5-2.2v53.4c0,4.8,1.2,6.7,4.6,6.7c0.4,0,0.7-0.1,1.2-0.1v1.6
				c-4.2,0.5-8.1,1.1-11.6,1.6c-0.5-2.1-0.8-4-0.8-5.9c-3.8,4-8,5.9-13,5.9c-9.7,0-16.6-7.7-16.6-19c0-12.1,7.5-19.8,17.9-19.8
				c4.5,0,7.7,1.6,11.8,5.1V21.7C393.1,16.8,392.4,15.5,388.6,15.5z M382.8,38.4c-6.7,0-11.8,6.3-11.8,17.8
				c0,10.4,4.7,16.1,11.2,16.1c4,0,7.7-2,10.8-5.9V44.2C389.9,40.3,386.3,38.4,382.8,38.4z"/>
		</g>
		<g>
			<path class="st4" d="M68.6,15.5h-0.7V14c4-0.5,7.9-1.3,12-2.2v53.7c0,4.5,0.4,6.5,4.9,6.5h0.9v1.8H66.3V72
				c0.5,0.1,1.1,0.1,1.5,0.1c3.2,0,5-1.5,5-3.8V21.7C72.9,17,72.7,15.5,68.6,15.5z"/>
		</g>
		<g>
			<path class="st4" d="M136.5,15.5h-1.3V14c4.3-0.4,8.5-1.2,12.5-2.2v30.5c3.9-4,8-5.9,12.9-5.9c9.9,0,16.7,7.6,16.7,18.9
				c0,12.1-7.5,19.8-17.7,19.8c-5.3,0-9.1-2-11.9-6.3c-1.9,1.8-3.3,3.9-4.6,6.3H141V21.7C141.1,16.8,140.4,15.5,136.5,15.5z
				 M158.1,72.4c6.7,0,11.8-6.3,11.8-17.5c0-10.1-4.7-15.9-11.3-15.9c-4,0-7.7,2-10.8,5.9v20.4C150.5,70.1,153.7,72.4,158.1,72.4z"
				/>
		</g>
		<g>
			<path class="st4" d="M209.2,67.1c0,2.8,0.4,4.3,2.7,4.3c2,0,3.2-1.4,3.9-4.3h1.3v0.5c0,4.6-2.7,7.4-7.1,7.4
				c-4.1,0-6.6-2.1-7.4-6.3c-6,4.2-11.1,6.5-15.7,6.5c-4.9,0-7.9-3.1-7.9-7.6c0-7,7.8-11.7,23.7-17.7v-4.1c0-5.1-2.1-7.5-7.8-7.5
				c-4,0-6.8,1.4-7.6,4.1c-0.5,1.8-0.6,4.9-3.8,4.9c-1.6,0-2.7-1.1-2.7-2.9c0-3.6,5.2-8.1,15.2-8.1c12.3,0,13.4,5.1,13.4,13.2v17.6
				H209.2z M186.1,65.7c0,3.7,2.1,5.8,5.3,5.8c2.7,0,6.5-1.8,11.1-5.4V51.8C191.3,55.6,186.1,59.2,186.1,65.7z"/>
		</g>
		<g>
			<path class="st4" d="M220.3,15.5h-0.7V14c4-0.5,7.9-1.3,12-2.2v53.7c0,4.5,0.4,6.5,4.9,6.5h0.9v1.8h-19.3V72
				c0.5,0.1,1.1,0.1,1.5,0.1c3.2,0,5-1.5,5-3.8V21.7C224.6,17,224.4,15.5,220.3,15.5z"/>
		</g>
		<g>
			<path class="st4" d="M270,59.6c0,7.3,2.6,11.2,8.3,12.1v2.1h-18.9v-2.1c6-0.5,8.8-4.6,8.8-12.1V22.4c0-4.9-1.5-6.4-5.7-6.4h-2.7
				v-2.1h15.9L294,63.1L312.6,14H329v2h-3.7c-3.7,0-5.4,1.9-5.4,7.1v41.2c0,4.9,1.4,7.3,5.3,7.3h3.8v2.1h-26v-2.1h3.7
				c3.9,0,5.4-2.4,5.4-7.3V20.7l-20.1,53h-2l-20-53.5L270,59.6L270,59.6z"/>
		</g>
		<g>
			<path class="st4" d="M333.5,49.9c-0.1,2.3-0.2,4.5-0.2,6.6c0,10.8,3,16.1,11.6,16.1c5.9,0,10.3-3.1,11.6-8h2.1
				c-0.9,6.1-6.8,10.3-14.9,10.3c-10.7,0-17.8-7.4-17.8-18.7c0-11.9,7.4-19.9,17.7-19.9c8.3,0,14.1,5.1,14.1,13.4v0.2
				C357.7,49.9,333.5,49.9,333.5,49.9z M350.5,45.4c0-4.6-2.9-7.2-7.6-7.2c-5.6,0-8.5,3.2-9.3,9.9h16.7
				C350.5,46.7,350.5,45.8,350.5,45.4z"/>
		</g>
		<g>
			<path class="st4" d="M420.7,65.4c0,4.5,0.4,6.5,5,6.5h0.9v1.8h-19.3v-1.8c0.5,0.1,1.1,0.1,1.5,0.1c3.2,0,5-1.5,5-3.8v-23
				c0-4.9-0.6-6.1-4.4-6.1H408v-1.6c4.3-0.5,8.5-1.2,12.7-2.3V65.4z M421.4,17.6c0,2.5-2.1,4.5-4.5,4.5s-4.5-2.1-4.5-4.5
				c0-2.5,2-4.5,4.5-4.5C419.5,13.1,421.4,15.1,421.4,17.6z"/>
		</g>
		<g>
			<path class="st4" d="M458,67.1c0,2.8,0.5,4.3,2.7,4.3c2,0,3.2-1.4,3.9-4.3h1.3v0.5c0,4.6-2.7,7.4-7.1,7.4c-4.1,0-6.6-2.1-7.4-6.3
				c-6,4.2-11.1,6.5-15.7,6.5c-4.9,0-7.9-3.1-7.9-7.6c0-7,7.8-11.7,23.7-17.7v-4.1c0-5.1-2.1-7.5-7.8-7.5c-4,0-6.8,1.4-7.6,4.1
				c-0.5,1.8-0.6,4.9-3.8,4.9c-1.6,0-2.7-1.1-2.7-2.9c0-3.6,5.2-8.1,15.2-8.1c12.3,0,13.4,5.1,13.4,13.2v17.6H458z M434.9,65.7
				c0,3.7,2.1,5.8,5.3,5.8c2.7,0,6.5-1.8,11.1-5.4V51.8C440.2,55.6,434.9,59.2,434.9,65.7z"/>
		</g>
		
			<image style="overflow:visible;enable-background:new    ;" width="68" height="65" xlink:href="FE50D138.png"  transform="matrix(0.75 0 0 0.75 84.6665 27.9542)">
		</image>
	</g>
	<g class="st5">
		
			<image style="overflow:visible;enable-background:new    ;" width="121" height="79" xlink:href="FE50D139.png"  transform="matrix(1 0 0 1 49.6665 47)">
		</image>
	</g>
</g>
<g>
	<path class="st6" d="M55.8,45.5c1.7,0.8,3.4,1.6,5.1,2.3c4.7,2.1,9.2,4.4,13,8c5,4.8,7.6,10.6,8.3,17.4c0.8,7.7-1.1,14.5-5.4,20.7
		c-0.8,1.1-1.7,2.1-2.5,3.1c0.2,0.2,0.3,0.3,0.5,0.5c1.9-2,3.9-3.8,5.7-5.9c9.8-11.5,10.3-30.5,1.2-42.5c-5-6.6-11.8-10.6-19.3-13.7
		c-0.1,0-0.1,0-0.2,0c-6.1-2.3-6.6-3.2-6.6-9.7c0-5,0-10,0-15c0-0.1,0.1-0.2,0.2-0.5c0.3,0,0.8-0.1,1,0.1c3.8,3.4,8.7,4.7,13.2,6.8
		c6.8,3.1,13.3,6.8,18.7,12.1c7.7,7.6,11.7,17,12.4,27.8c0.6,7.8-0.3,15.3-3.3,22.5c-6.8,16-18.6,26-35.7,29.6
		c-1.2,0.3-2.4,0.6-3.7,0.6c-1,0-2.5,0.9-2.8-1.1c-0.4-2.5,0.3-3.9,2.2-4.3c4.5-0.9,7.9-3.5,10.4-7.1c7.8-10.9,1.9-26.2-11.1-29.1
		c-1-0.2-1.5-0.4-1.5-1.6c0-6.8,0-13.5,0-20.3C55.5,46.1,55.6,45.9,55.8,45.5z"/>
	<path class="st6" d="M50.2,45.3c0,3.1,0,5.8,0,8.5c0,4.1,0,8.3,0,12.4c0,1-0.1,1.7-1.4,1.9c-8,1.5-14.1,9-14.7,16.8
		c-0.6,9.1,5.2,16.6,11.5,18.8c0.6,0.2,1.2,0.5,1.9,0.6c2.5,0.6,3.6,2.4,2.6,4.6c-0.2,0.5-1.5,1-2.2,0.9c-5.4-0.6-10.7-2-15.6-4.4
		C19,98.9,9.9,88.6,6.2,74.2c-3.8-14.8-2.1-29,7.7-41.4c5.2-6.7,12.3-11.1,19.9-14.7c4-1.9,8.1-3.6,12.1-5.6
		c1.4-0.7,2.5-1.6,3.9-2.5c0.2,0.4,0.4,0.6,0.4,0.7c0,6.1,0,12.2,0,18.3c0,2.8-1.8,4.2-4.2,5.3c-4.8,2.3-9.8,4.5-14.2,7.5
		C21.4,49,17,59.1,17.7,71.6c0.6,10.2,4.9,18.6,12.7,25.2c0.2,0.2,0.4,0.3,0.6,0.5c0.1,0,0.2,0,0.6-0.1c-1-1.3-2-2.4-2.9-3.7
		c-6.9-10-7.1-23.6-0.6-33.2c3.8-5.6,9.3-9.1,15.4-11.8C45.5,47.5,47.7,46.5,50.2,45.3z"/>
	<path class="st7" d="M331.7,78.3c0-11.8,0-23.5,0-35.3c2.6,0,5.1,0,7.9,0c-0.1,1.7-0.2,3.5-0.3,5.3c0.3,0.2,0.6,0.5,0.9,0.7
		c0.3-0.6,0.5-1.3,0.9-1.9c3.7-5.2,11.1-6.8,16-3.1c1.5,1.1,2.4,3,3.8,4.7c0.5-0.6,1.2-1.3,1.8-2.1c3-3.8,7-5.2,11.7-4.4
		c4.4,0.7,6.9,3.5,7.6,8.1c0.2,1.4,0.3,2.7,0.3,4.1c0,7.3,0,14.6,0,21.9c0,0.6,0,1.3,0,2c-2.9,0-5.5,0-8.4,0c0-0.7-0.1-1.4-0.1-2.1
		c0-6.8,0-13.7,0-20.5c0-0.7,0-1.5-0.1-2.2c-0.7-4.2-4.6-5.7-8-3.1c-3.4,2.6-4.5,6.2-4.6,10.2c-0.1,5.8,0,11.7,0,17.8
		c-2.6,0-5.1,0.1-7.5-0.1c-0.3,0-0.8-1.2-0.8-1.8c-0.1-6.7,0-13.4,0-20.1c0-0.8,0-1.6,0-2.4c-0.2-4.5-3.7-6.4-7.5-3.9
		c-3.5,2.3-4.8,5.8-4.9,9.8c-0.2,5.4,0,10.8-0.1,16.2c0,0.7,0,1.4,0,2.2C337.2,78.3,334.6,78.3,331.7,78.3z"/>
	<path class="st7" d="M285.9,79c-9.1,0-14.7-5.4-15.5-14.6c-0.5-5.9,0.3-11.4,4.1-16.1c4-4.9,9.3-6.9,15.3-6.1
		c8.7,1.1,13,5.8,13.8,15.3c0.6,7.5-1.5,14.1-7.9,18.6C292.9,78.2,289.7,79,285.9,79z M295.1,61c-0.2-2.1-0.3-3.6-0.5-5
		c-0.8-4-3.1-6.3-6.5-6.5c-3.9-0.3-6.8,1.7-8.1,5.5c-1.3,3.7-1.1,7.5,0,11.2c1,3.4,3.4,5.2,6.8,5.3c3.2,0.1,6-1.6,7.1-4.9
		C294.5,64.7,294.7,62.5,295.1,61z"/>
	<path class="st7" d="M458.7,73.2c-0.4,0.4-0.8,0.9-1.2,1.3c-3.1,3.7-7.1,5.1-11.8,4.3c-3.2-0.5-5.7-2.3-6.8-5.5
		c-1.4-4.1-0.6-7.8,2.4-10.9c3.8-3.9,8.8-5,14-5.4c3.2-0.2,3.2-0.1,3.1-3.1c-0.1-3.4-2-5.4-6-5.2c-3.1,0.1-6.1,1.1-9.2,1.7
		c-0.6,0.1-1.1,0.4-1.8,0.7c-0.3-2.1-0.5-4-0.7-6c0-0.3,0.4-0.9,0.7-1c6.6-2.1,13.3-3.1,20-0.4c2.8,1.1,4.5,3.4,5,6.3
		c0.4,1.9,0.6,3.9,0.6,5.8c0.1,7.2,0.1,14.5,0.1,21.7c0,0.3-0.1,0.5-0.1,0.9c-2.6,0-5.1,0-7.7,0c0-1.7,0-3.3,0-4.9
		C459,73.4,458.9,73.3,458.7,73.2z M458.1,62.5c-3.3,0-6.4,0.1-9.3,1.7c-2.2,1.2-3,3.6-2.1,5.8c0.7,1.9,2.7,2.7,5.1,2.3
		C455.9,71.5,458.7,67.3,458.1,62.5z"/>
	<path class="st7" d="M388.1,42.9c2.8,0,5.4,0,8.4,0c0,0.7,0,1.4,0,2.1c0,6.4,0,12.9,0,19.3c0,0.7,0,1.4,0,2.2
		c0.1,3.2,0.9,4.5,3,5.2c2.4,0.7,5.5-0.3,7-2.3c1.8-2.6,2.9-5.4,2.9-8.6c0-5.2,0-10.4,0-15.6c0-0.7,0-1.4,0-2.2c2.9,0,5.5,0,8.3,0
		c0,11.8,0,23.5,0,35.3c-2.5,0-4.9,0-7.5,0c0-1.7,0-3.5,0-5.9c-0.9,0.9-1.4,1.4-1.8,1.9c-3.6,4.8-11.5,6.4-16.3,3.1
		c-3.1-2.1-3.9-5.4-3.9-8.8C388,60.1,388.1,51.6,388.1,42.9z"/>
	<path class="st7" d="M247.7,29.9c9.1,0,18.1,0,27.2,0c0,2.4,0,4.8,0,7.4c-6.2,0-12.4,0-18.7,0c0,4.2,0,8.1,0,12.2
		c3.4,0,6.8,0,10.3,0c0,2.8,0,5.4,0,8.2c-3.4,0-6.7,0-10.4,0c0,7,0,13.8,0,20.7c-2.9,0-5.6,0-8.4,0
		C247.7,62.2,247.7,46.2,247.7,29.9z"/>
	<path class="st7" d="M120.2,55.8c6.3,7.8,12.4,15.3,18.7,23.1c-2.7,0.1-4.8,0.5-6.7-2c-5-6.8-10.4-13.3-15.6-19.9
		c-0.3-0.4-0.5-1.1-0.7-1.6c-0.3,0.2-0.6,0.4-1,0.6c0,7.6,0,15.2,0,22.9c-1.5,0-2.6,0-3.9,0c0-0.8,0-1.4,0-2.1c0-14.7,0-29.4,0-44.2
		c0-1.9,0.5-2.6,2.4-2.4c4.7,0.3,9.5-0.1,14.1,0.8c10.4,1.9,10.6,13,6.6,18.5c-2.9,4.1-7.3,5.4-12.1,6
		C121.7,55.6,121.2,55.7,120.2,55.8z M115.3,52.3c4.6,0.6,8.8,0.2,11.6-1.1c3.9-1.9,5.7-5.4,5.3-10.1c-0.4-3.7-2.6-6.3-6.6-7
		c-3.3-0.6-6.7-0.5-10.2-0.7C115.3,40,115.3,46.1,115.3,52.3z"/>
	<path class="st7" d="M195,43.1c0-4.4,0-8.7,0-13.2c1.3,0,2.4,0,3.7,0c0,16.2,0,32.5,0,48.9c-1.2,0-2.4,0-3.8,0
		c0.1-2.3,0.2-4.6,0.4-6.9c-0.2-0.1-0.3-0.1-0.5-0.2c-0.4,0.5-0.8,1-1.1,1.5c-4.4,7.2-14.1,8.6-19.5,2.7c-2.5-2.7-3.4-6.2-3.7-9.7
		c-0.6-5.7-0.1-11.4,3.2-16.3c4.1-6.1,10.4-7.5,17.3-7c1,0.1,2.1,0.2,3.1,0.2C194.3,43.3,194.6,43.2,195,43.1z M194.8,55.3
		c0-2.3,0.1-4.6-0.1-6.9c0-0.5-0.7-1.4-1.2-1.5c-2.1-0.4-4.3-0.8-6.4-0.7c-4.8,0-8.8,1.9-10.7,6.6c-2.5,5.9-2.5,12.1-0.4,18.1
		c1.3,3.8,4,5.4,8,5.3c4.5-0.1,6.9-3,8.8-6.6C195.1,65.1,194.9,60.2,194.8,55.3z"/>
	<path class="st7" d="M425.3,29.9c2.8,0,5.6,0,8.5,0c0,0.7,0.1,1.3,0.1,2c0,14.8,0,29.6,0,44.4c0,1.7-0.4,2.4-2.2,2.2
		c-2.1-0.2-4.2,0-6.4,0C425.3,62.2,425.3,46.2,425.3,29.9z"/>
	<path class="st7" d="M316.4,78.4c-2.3,0-4.3-0.1-6.2,0c-1.7,0.1-2.3-0.4-2.2-2.2c0.1-9.5,0-18.9,0-28.4c0-1.6,0-3.1,0-4.9
		c2.7,0,5.2,0,8,0c-0.1,1.9-0.2,3.8-0.3,5.6c0.1,0.1,0.3,0.2,0.4,0.3c2.5-3.7,5.1-7.3,10.2-6.9c0,2.8,0,5.5,0,8
		c-2,0.4-4,0.4-5.5,1.2c-2.8,1.5-3.7,4.4-3.9,7.3c-0.3,5.7-0.3,11.4-0.5,17.1C316.4,76.5,316.4,77.3,316.4,78.4z"/>
	<path class="st7" d="M213.1,61.6c0.1-6.4,1.9-12.2,7.5-16.2c6.8-4.9,20.4-3.7,23,9.1c1.3,6.6,0.8,12.9-3.1,18.6
		c-4.9,7.2-15.8,8.8-22.3,3c-3.3-2.9-4.4-7-4.9-11.3C213.2,63.8,213.2,62.7,213.1,61.6z M240.4,60.9c-0.4-2.4-0.7-4.9-1.4-7.3
		c-1.3-4.5-4.7-7.1-9.1-7.5c-4.7-0.4-8.6,1.7-10.6,5.9c-2.9,6.2-2.7,12.5,0.1,18.6c1.7,3.7,4.9,5.4,9.1,5.5c4.2,0.1,7.3-1.8,9.4-5.4
		C239.7,67.7,240.1,64.4,240.4,60.9z"/>
	<path class="st7" d="M165.2,78.9c-1.2,0-2.3,0-3.6,0c0-2.3,0-4.5,0-6.7c-0.1-0.1-0.3-0.1-0.4-0.2c-0.4,0.5-0.9,0.9-1.2,1.5
		c-2.7,4.4-8.4,6.9-13.4,5.8c-3.1-0.7-5.4-2.3-6.4-5.4c-1-3.3-0.3-6.2,1.9-8.8c3.2-3.7,7.6-5,12.2-5.7c2.2-0.4,4.4-0.4,6.7-0.6
		c0-2.5,0.4-5-0.1-7.4c-0.7-3.9-4.1-6-8.7-5.4c-3.3,0.4-6.6,1.4-9.9,2.1c-0.7-2.6-0.7-2.6,2-3.7c4.3-1.6,8.6-2.1,13.1-1.2
		c4.6,0.9,7.6,4.4,7.7,9.6c0.2,8.5,0.1,16.9,0.1,25.4C165.3,78.4,165.3,78.6,165.2,78.9z M161.2,61.8c-2.2,0.2-4.2,0.2-6.1,0.5
		c-3.3,0.4-6.5,1.1-9.1,3.4c-2,1.8-2.7,4.5-1.7,7c0.8,2.2,2.9,3.7,5.6,3.4c2-0.2,4.2-0.7,5.8-1.9C159.8,71.4,161.3,67.1,161.2,61.8z
		"/>
	<path class="st7" d="M208.2,78.9c-1.3,0-2.4,0-3.6,0c0-11.9,0-23.7,0-35.5c1.2,0,2.3,0,3.6,0C208.2,55.2,208.2,67,208.2,78.9z"/>
	<path class="st7" d="M289.7,39.4c-0.5-0.6-1-1.2-1.6-2c3.2-2.4,6.3-4.8,9.5-7.3c1,1.3,2,2.6,3.1,4.1C297,36,293.3,37.7,289.7,39.4z
		"/>
	<path class="st7" d="M209.4,32.9c0,1.4-1.6,3-2.9,3c-1.4,0-2.9-1.6-2.9-3c0-1.5,1.6-3.1,3-3C208,29.9,209.4,31.5,209.4,32.9z"/>
</g>
</svg>
