<?xml version="1.0" encoding="utf-8"?>
<!-- Generator: Adobe Illustrator 19.2.1, SVG Export Plug-In . SVG Version: 6.00 Build 0)  -->
<svg version="1.1" id="Capa_1" xmlns="http://www.w3.org/2000/svg" xmlns:xlink="http://www.w3.org/1999/xlink" x="0px" y="0px"
	 viewBox="0 0 400 100" style="enable-background:new 0 0 400 100;" xml:space="preserve">
<style type="text/css">
	.st0{fill:#FFFFFF;}
	.st1{fill:#1C6AB3;}
</style>
<g>
	<rect x="287.5" y="7" class="st0" width="112" height="86"/>
	<g>
		<path class="st0" d="M0.5,72.7V27.3h20.7c4.1,0,7.7,0.7,10.7,2c3,1.3,5.3,3.3,7,5.8c1.6,2.5,2.5,5.5,2.5,9c0,3.4-0.8,6.4-2.5,8.9
			c-1.6,2.5-4,4.4-7,5.8c-3,1.4-6.6,2-10.7,2H7.6l5.7-5.6v17.4H0.5z M13.3,56.6l-5.7-5.9h12.8c2.7,0,4.7-0.6,6-1.7
			c1.3-1.2,2-2.8,2-4.9c0-2.1-0.7-3.8-2-4.9c-1.3-1.2-3.3-1.7-6-1.7H7.6l5.7-5.9V56.6z"/>
		<path class="st0" d="M71.1,73.6c-3.6,0-7-0.6-10-1.7c-3.1-1.2-5.7-2.8-8-5c-2.3-2.1-4-4.6-5.3-7.5c-1.3-2.9-1.9-6-1.9-9.4
			c0-3.4,0.6-6.5,1.9-9.4c1.3-2.9,3-5.3,5.3-7.5c2.3-2.1,4.9-3.8,8-5c3.1-1.2,6.4-1.7,10-1.7c3.7,0,7,0.6,10.1,1.7
			c3,1.2,5.7,2.8,7.9,5c2.2,2.1,4,4.6,5.3,7.5c1.3,2.9,1.9,6,1.9,9.4c0,3.4-0.6,6.6-1.9,9.4c-1.3,2.9-3,5.4-5.3,7.5
			c-2.2,2.1-4.9,3.8-7.9,4.9C78.2,73,74.8,73.6,71.1,73.6z M71.1,63c1.7,0,3.3-0.3,4.8-0.9c1.5-0.6,2.8-1.5,3.9-2.6
			c1.1-1.1,2-2.5,2.6-4.1c0.6-1.6,0.9-3.4,0.9-5.3c0-2-0.3-3.8-0.9-5.3c-0.6-1.6-1.5-2.9-2.6-4.1c-1.1-1.1-2.4-2-3.9-2.6
			c-1.5-0.6-3.1-0.9-4.8-0.9c-1.7,0-3.3,0.3-4.8,0.9c-1.5,0.6-2.8,1.5-3.9,2.6c-1.1,1.1-2,2.5-2.6,4.1c-0.6,1.6-0.9,3.4-0.9,5.3
			c0,1.9,0.3,3.7,0.9,5.3c0.6,1.6,1.5,3,2.6,4.1c1.1,1.1,2.4,2,3.9,2.6C67.8,62.7,69.4,63,71.1,63z"/>
		<path class="st0" d="M103.1,72.7V27.3h20.3c6.6,0,11.7,1.5,15.3,4.5c3.6,3,5.3,7.1,5.3,12.3c0,3.4-0.8,6.4-2.5,8.8
			c-1.6,2.5-4,4.4-7,5.7c-3,1.3-6.6,2-10.7,2h-13.6l5.7-5.4v17.4H103.1z M115.9,56.6l-5.7-5.9h12.8c2.7,0,4.7-0.6,6-1.7
			c1.3-1.2,2-2.8,2-4.9c0-2.1-0.7-3.8-2-4.9c-1.3-1.2-3.3-1.7-6-1.7h-12.8l5.7-5.9V56.6z M131.2,72.7l-11.3-16.5h13.7l11.3,16.5
			H131.2z"/>
		<path class="st0" d="M160.1,72.7V37.5h-13.9V27.3h40.6v10.2h-13.9v35.2H160.1z"/>
		<path class="st0" d="M183.9,72.7l20-45.4h12.6l20.1,45.4h-13.4l-15.7-39.1h5.1L197,72.7H183.9z M194.8,63.9l3.3-9.5h22.2l3.3,9.5
			H194.8z"/>
		<path class="st0" d="M240.2,72.7V27.3h12.8v35.2h21.6v10.2H240.2z"/>
	</g>
	<g>
		<path class="st1" d="M322.1,73.2c-3.5,0-6.6-0.6-9.6-1.7c-2.9-1.1-5.4-2.8-7.6-4.9c-2.1-2.1-3.8-4.5-5-7.4
			c-1.2-2.8-1.8-5.9-1.8-9.3c0-3.4,0.6-6.5,1.8-9.3c1.2-2.8,2.9-5.3,5.1-7.4c2.2-2.1,4.7-3.7,7.6-4.9c2.9-1.1,6.1-1.7,9.6-1.7
			c3.5,0,6.7,0.6,9.7,1.8c3,1.2,5.5,2.9,7.6,5.3l-4.2,4.1c-1.7-1.8-3.7-3.2-5.8-4.1c-2.2-0.9-4.5-1.3-6.9-1.3
			c-2.5,0-4.9,0.4-7.1,1.3c-2.2,0.9-4.1,2.1-5.7,3.6c-1.6,1.6-2.8,3.4-3.7,5.5c-0.9,2.1-1.3,4.5-1.3,7s0.4,4.8,1.3,7
			c0.9,2.1,2.1,4,3.7,5.5c1.6,1.6,3.5,2.8,5.7,3.6c2.2,0.9,4.5,1.3,7.1,1.3c2.5,0,4.8-0.4,6.9-1.3c2.2-0.9,4.1-2.3,5.8-4.1l4.2,4.1
			c-2.1,2.3-4.6,4.1-7.6,5.3C328.9,72.6,325.6,73.2,322.1,73.2z"/>
		<path class="st1" d="M345.7,72.7V27.3h12.8v45.4H345.7z M357.6,55V44.4H377V55H357.6z M376.1,72.7V27.3h12.8v45.4H376.1z"/>
	</g>
</g>
</svg>
