<svg xmlns="http://www.w3.org/2000/svg" width="1200" height="800" viewBox="0 0 1200 800"><rect width="100%" height="100%" fill="#DDDDDD"/><path fill="#999999" d="M290.395 437.93h18.33v13.04h-56.4v-13.04h20.66V378.5q0-3.53.21-7.27l-14.66 12.27q-1.27.99-2.5 1.24-1.24.24-2.33.03t-1.94-.74-1.27-1.16l-5.5-7.55 31.09-26.43h14.31zm70.15-3.18h26.16q2.82 0 4.47 1.59 1.66 1.59 1.66 4.2v10.43h-69.93v-5.78q0-1.76.74-3.7t2.36-3.49l30.95-31.02q3.87-3.95 6.94-7.55 3.07-3.59 5.11-7.12 2.05-3.52 3.14-7.15t1.09-7.65q0-3.67-1.06-6.45-1.05-2.79-2.99-4.69t-4.65-2.86q-2.72-.95-6.1-.95-3.1 0-5.75.88-2.64.89-4.69 2.47-2.04 1.59-3.45 3.7-1.41 2.12-2.12 4.66-1.19 3.24-3.1 4.3-1.9 1.05-5.5.49l-9.16-1.62q1.06-7.33 4.09-12.87 3.03-5.53 7.58-9.23 4.54-3.7 10.43-5.57t12.65-1.87q7.05 0 12.91 2.08 5.85 2.08 10.01 5.89 4.16 3.8 6.48 9.16 2.33 5.36 2.33 11.91 0 5.64-1.66 10.44-1.65 4.79-4.44 9.16-2.78 4.37-6.52 8.46t-7.83 8.32l-22.98 23.48q3.31-.99 6.59-1.52t6.24-.53M477.575 400q0 13.32-2.85 23.16-2.86 9.83-7.9 16.25-5.04 6.41-11.91 9.55-6.88 3.14-14.84 3.14-7.97 0-14.77-3.14-6.81-3.14-11.81-9.55-5.01-6.42-7.83-16.25-2.82-9.84-2.82-23.16 0-13.4 2.82-23.2t7.83-16.21q5-6.42 11.81-9.55 6.8-3.14 14.77-3.14 7.96 0 14.84 3.14 6.87 3.13 11.91 9.55 5.04 6.41 7.9 16.21 2.85 9.8 2.85 23.2m-17.98 0q0-11.07-1.62-18.33t-4.33-11.56q-2.72-4.3-6.24-6.03-3.53-1.73-7.33-1.73-3.74 0-7.23 1.73t-6.17 6.03-4.26 11.56q-1.59 7.26-1.59 18.33t1.59 18.33q1.58 7.26 4.26 11.56t6.17 6.03 7.23 1.73q3.8 0 7.33-1.73 3.52-1.73 6.24-6.03 2.71-4.3 4.33-11.56t1.62-18.33m99.76 0q0 13.32-2.85 23.16-2.86 9.83-7.9 16.25-5.04 6.41-11.91 9.55-6.88 3.14-14.84 3.14-7.97 0-14.77-3.14-6.81-3.14-11.81-9.55-5.01-6.42-7.83-16.25-2.82-9.84-2.82-23.16 0-13.4 2.82-23.2t7.83-16.21q5-6.42 11.81-9.55 6.8-3.14 14.77-3.14 7.96 0 14.84 3.14 6.87 3.13 11.91 9.55 5.04 6.41 7.9 16.21 2.85 9.8 2.85 23.2m-17.98 0q0-11.07-1.62-18.33t-4.33-11.56q-2.72-4.3-6.24-6.03-3.53-1.73-7.33-1.73-3.74 0-7.23 1.73t-6.17 6.03-4.26 11.56q-1.59 7.26-1.59 18.33t1.59 18.33q1.58 7.26 4.26 11.56t6.17 6.03 7.23 1.73q3.8 0 7.33-1.73 3.52-1.73 6.24-6.03 2.71-4.3 4.33-11.56t1.62-18.33m129.94 27.63-9.24 9.1-23.9-23.9-24.11 24.04-9.24-9.09 24.12-24.19-22.99-22.98 9.17-9.16 22.98 22.98 22.84-22.84 9.31 9.16-22.91 22.91zm82.76 10.86q4.3 0 7.55-1.23 3.24-1.24 5.46-3.42 2.22-2.19 3.35-5.22t1.13-6.56q0-8.38-4.66-12.69-4.65-4.3-12.83-4.3-8.17 0-12.83 4.3-4.65 4.31-4.65 12.69 0 3.53 1.13 6.56t3.35 5.22q2.22 2.18 5.46 3.42 3.24 1.23 7.54 1.23m0-77.48q-3.87 0-6.69 1.2t-4.69 3.21-2.75 4.62q-.88 2.6-.88 5.49 0 3.04.74 5.89.74 2.86 2.5 5.08t4.65 3.56 7.12 1.34 7.12-1.34 4.66-3.56q1.76-2.22 2.5-5.08.74-2.85.74-5.89 0-2.89-.92-5.49-.91-2.61-2.75-4.62-1.83-2.01-4.65-3.21t-6.7-1.2m17.21 36.8q9.3 3.03 13.74 9.27t4.44 15.27q0 6.76-2.57 12.26t-7.23 9.38q-4.65 3.88-11.17 5.99-6.52 2.12-14.42 2.12-7.89 0-14.41-2.12-6.53-2.11-11.18-5.99t-7.22-9.38q-2.58-5.5-2.58-12.26 0-9.03 4.44-15.27 4.45-6.24 13.75-9.27-7.4-3.1-11.1-8.81t-3.7-13.75q0-5.78 2.36-10.78 2.36-5.01 6.59-8.71t10.12-5.78q5.88-2.08 12.93-2.08t12.94 2.08 10.12 5.78 6.59 8.71q2.36 5 2.36 10.78 0 8.04-3.7 13.75t-11.1 8.81m101.94 2.19q0 13.32-2.86 23.16-2.85 9.83-7.89 16.25-5.04 6.41-11.92 9.55-6.87 3.14-14.84 3.14-7.96 0-14.77-3.14-6.8-3.14-11.81-9.55-5-6.42-7.82-16.25-2.82-9.84-2.82-23.16 0-13.4 2.82-23.2t7.82-16.21q5.01-6.42 11.81-9.55 6.81-3.14 14.77-3.14 7.97 0 14.84 3.14 6.88 3.13 11.92 9.55 5.04 6.41 7.89 16.21 2.86 9.8 2.86 23.2m-17.98 0q0-11.07-1.62-18.33t-4.34-11.56q-2.71-4.3-6.24-6.03-3.52-1.73-7.33-1.73-3.73 0-7.22 1.73t-6.17 6.03-4.27 11.56q-1.58 7.26-1.58 18.33t1.58 18.33q1.59 7.26 4.27 11.56t6.17 6.03 7.22 1.73q3.81 0 7.33-1.73 3.53-1.73 6.24-6.03 2.72-4.3 4.34-11.56t1.62-18.33m99.76 0q0 13.32-2.86 23.16-2.85 9.83-7.89 16.25-5.04 6.41-11.92 9.55-6.87 3.14-14.84 3.14-7.96 0-14.77-3.14-6.8-3.14-11.81-9.55-5-6.42-7.82-16.25-2.82-9.84-2.82-23.16 0-13.4 2.82-23.2t7.82-16.21q5.01-6.42 11.81-9.55 6.81-3.14 14.77-3.14 7.97 0 14.84 3.14 6.88 3.13 11.92 9.55 5.04 6.41 7.89 16.21 2.86 9.8 2.86 23.2m-17.98 0q0-11.07-1.62-18.33t-4.34-11.56q-2.71-4.3-6.24-6.03-3.52-1.73-7.33-1.73-3.73 0-7.22 1.73t-6.17 6.03-4.27 11.56q-1.58 7.26-1.58 18.33t1.58 18.33q1.59 7.26 4.27 11.56t6.17 6.03 7.22 1.73q3.81 0 7.33-1.73 3.53-1.73 6.24-6.03 2.72-4.3 4.34-11.56t1.62-18.33"/></svg>